<?xml version="1.0" encoding="UTF-8" standalone="no"?>
<!DOCTYPE svg PUBLIC "-//W3C//DTD SVG 1.1//EN"
 "http://www.w3.org/Graphics/SVG/1.1/DTD/svg11.dtd">
<!-- Generated by graphviz version 2.38.0 (20140413.2041)
 -->
<!-- Title: G Pages: 1 -->
<svg width="1660pt" height="124pt"
 viewBox="0.00 0.00 1659.96 123.98" xmlns="http://www.w3.org/2000/svg" xmlns:xlink="http://www.w3.org/1999/xlink">
<g id="graph0" class="graph" transform="scale(1 1) rotate(0) translate(7.992 115.992)">
<title>G</title>
<polygon fill="#000000" stroke="none" points="-7.992,7.992 -7.992,-115.992 1651.97,-115.992 1651.97,7.992 -7.992,7.992"/>
<!-- src/index -->
<g id="node1" class="node"><title>src/index</title>
<ellipse fill="none" stroke="#c6c5fe" cx="817.137" cy="-90" rx="48.1917" ry="18"/>
<text text-anchor="middle" x="817.137" y="-86.3" font-family="Arial" font-size="14.00" fill="#c6c5fe">src/index</text>
</g>
<!-- node_modules/fun&#45;array/src/index -->
<g id="node2" class="node"><title>node_modules/fun&#45;array/src/index</title>
<ellipse fill="none" stroke="#cfffac" cx="150.137" cy="-18" rx="150.273" ry="18"/>
<text text-anchor="middle" x="150.137" y="-14.3" font-family="Arial" font-size="14.00" fill="#cfffac">node_modules/fun&#45;array/src/index</text>
</g>
<!-- src/index&#45;&gt;node_modules/fun&#45;array/src/index -->
<g id="edge1" class="edge"><title>src/index&#45;&gt;node_modules/fun&#45;array/src/index</title>
<path fill="none" stroke="#757575" d="M771.342,-84.2391C682.431,-74.9898 480.222,-53.9258 310.137,-36 296.724,-34.5864 282.679,-33.1013 268.718,-31.622"/>
<polygon fill="#757575" stroke="#757575" points="268.891,-28.1208 258.578,-30.547 268.153,-35.0818 268.891,-28.1208"/>
</g>
<!-- node_modules/fun&#45;function/src/index -->
<g id="node3" class="node"><title>node_modules/fun&#45;function/src/index</title>
<ellipse fill="none" stroke="#cfffac" cx="481.137" cy="-18" rx="162.471" ry="18"/>
<text text-anchor="middle" x="481.137" y="-14.3" font-family="Arial" font-size="14.00" fill="#cfffac">node_modules/fun&#45;function/src/index</text>
</g>
<!-- src/index&#45;&gt;node_modules/fun&#45;function/src/index -->
<g id="edge2" class="edge"><title>src/index&#45;&gt;node_modules/fun&#45;function/src/index</title>
<path fill="none" stroke="#757575" d="M776.272,-80.4866C723.788,-69.5524 631.438,-50.3127 563.984,-36.2599"/>
<polygon fill="#757575" stroke="#757575" points="564.305,-32.7517 553.802,-34.1385 562.878,-39.6046 564.305,-32.7517"/>
</g>
<!-- node_modules/fun&#45;object/src/index -->
<g id="node4" class="node"><title>node_modules/fun&#45;object/src/index</title>
<ellipse fill="none" stroke="#cfffac" cx="817.137" cy="-18" rx="155.173" ry="18"/>
<text text-anchor="middle" x="817.137" y="-14.3" font-family="Arial" font-size="14.00" fill="#cfffac">node_modules/fun&#45;object/src/index</text>
</g>
<!-- src/index&#45;&gt;node_modules/fun&#45;object/src/index -->
<g id="edge3" class="edge"><title>src/index&#45;&gt;node_modules/fun&#45;object/src/index</title>
<path fill="none" stroke="#757575" d="M817.137,-71.6966C817.137,-63.9827 817.137,-54.7125 817.137,-46.1124"/>
<polygon fill="#757575" stroke="#757575" points="820.637,-46.1043 817.137,-36.1043 813.637,-46.1044 820.637,-46.1043"/>
</g>
<!-- node_modules/fun&#45;predicate/src/index -->
<g id="node5" class="node"><title>node_modules/fun&#45;predicate/src/index</title>
<ellipse fill="none" stroke="#cfffac" cx="1159.14" cy="-18" rx="168.97" ry="18"/>
<text text-anchor="middle" x="1159.14" y="-14.3" font-family="Arial" font-size="14.00" fill="#cfffac">node_modules/fun&#45;predicate/src/index</text>
</g>
<!-- src/index&#45;&gt;node_modules/fun&#45;predicate/src/index -->
<g id="edge4" class="edge"><title>src/index&#45;&gt;node_modules/fun&#45;predicate/src/index</title>
<path fill="none" stroke="#757575" d="M858.39,-80.5564C911.729,-69.6389 1005.93,-50.3586 1074.72,-36.2774"/>
<polygon fill="#757575" stroke="#757575" points="1075.59,-39.6734 1084.68,-34.2392 1074.18,-32.8156 1075.59,-39.6734"/>
</g>
<!-- node_modules/guarded/src/index -->
<g id="node6" class="node"><title>node_modules/guarded/src/index</title>
<ellipse fill="none" stroke="#cfffac" cx="1495.14" cy="-18" rx="148.674" ry="18"/>
<text text-anchor="middle" x="1495.14" y="-14.3" font-family="Arial" font-size="14.00" fill="#cfffac">node_modules/guarded/src/index</text>
</g>
<!-- src/index&#45;&gt;node_modules/guarded/src/index -->
<g id="edge5" class="edge"><title>src/index&#45;&gt;node_modules/guarded/src/index</title>
<path fill="none" stroke="#757575" d="M863.055,-84.4072C953.703,-75.3212 1162.05,-54.3419 1337.14,-36 1350.49,-34.6006 1364.49,-33.1187 1378.39,-31.6362"/>
<polygon fill="#757575" stroke="#757575" points="1378.91,-35.1002 1388.48,-30.5578 1378.17,-28.1398 1378.91,-35.1002"/>
</g>
</g>
</svg>
