<?xml version="1.0" encoding="UTF-8" standalone="no"?>
<!DOCTYPE svg PUBLIC "-//W3C//DTD SVG 1.1//EN"
 "http://www.w3.org/Graphics/SVG/1.1/DTD/svg11.dtd">
<!-- Generated by graphviz version 2.38.0 (20140413.2041)
 -->
<!-- Title: G Pages: 1 -->
<svg width="2258pt" height="124pt"
 viewBox="0.00 0.00 2257.91 123.98" xmlns="http://www.w3.org/2000/svg" xmlns:xlink="http://www.w3.org/1999/xlink">
<g id="graph0" class="graph" transform="scale(1 1) rotate(0) translate(7.992 115.992)">
<title>G</title>
<polygon fill="#000000" stroke="none" points="-7.992,7.992 -7.992,-115.992 2249.92,-115.992 2249.92,7.992 -7.992,7.992"/>
<!-- src/index -->
<g id="node1" class="node"><title>src/index</title>
<ellipse fill="none" stroke="#c6c5fe" cx="1118.09" cy="-90" rx="48.1917" ry="18"/>
<text text-anchor="middle" x="1118.09" y="-86.3" font-family="Arial" font-size="14.00" fill="#c6c5fe">src/index</text>
</g>
<!-- node_modules/fun&#45;apply/src/index -->
<g id="node2" class="node"><title>node_modules/fun&#45;apply/src/index</title>
<ellipse fill="none" stroke="#cfffac" cx="152.087" cy="-18" rx="152.173" ry="18"/>
<text text-anchor="middle" x="152.087" y="-14.3" font-family="Arial" font-size="14.00" fill="#cfffac">node_modules/fun&#45;apply/src/index</text>
</g>
<!-- src/index&#45;&gt;node_modules/fun&#45;apply/src/index -->
<g id="edge1" class="edge"><title>src/index&#45;&gt;node_modules/fun&#45;apply/src/index</title>
<path fill="none" stroke="#757575" d="M1070.86,-86.5431C946.634,-79.94 600.556,-60.6306 313.087,-36 298.866,-34.7815 283.952,-33.3776 269.179,-31.9096"/>
<polygon fill="#757575" stroke="#757575" points="269.284,-28.4027 258.984,-30.8846 268.584,-35.3675 269.284,-28.4027"/>
</g>
<!-- node_modules/fun&#45;assert/src/index -->
<g id="node3" class="node"><title>node_modules/fun&#45;assert/src/index</title>
<ellipse fill="none" stroke="#cfffac" cx="477.087" cy="-18" rx="155.173" ry="18"/>
<text text-anchor="middle" x="477.087" y="-14.3" font-family="Arial" font-size="14.00" fill="#cfffac">node_modules/fun&#45;assert/src/index</text>
</g>
<!-- src/index&#45;&gt;node_modules/fun&#45;assert/src/index -->
<g id="edge2" class="edge"><title>src/index&#45;&gt;node_modules/fun&#45;assert/src/index</title>
<path fill="none" stroke="#757575" d="M1072.5,-84.0219C974.252,-73.2926 739.827,-47.6924 596.174,-32.0049"/>
<polygon fill="#757575" stroke="#757575" points="596.312,-28.4992 585.991,-30.8929 595.552,-35.4578 596.312,-28.4992"/>
</g>
<!-- node_modules/fun&#45;case/src/index -->
<g id="node4" class="node"><title>node_modules/fun&#45;case/src/index</title>
<ellipse fill="none" stroke="#cfffac" cx="800.087" cy="-18" rx="150.273" ry="18"/>
<text text-anchor="middle" x="800.087" y="-14.3" font-family="Arial" font-size="14.00" fill="#cfffac">node_modules/fun&#45;case/src/index</text>
</g>
<!-- src/index&#45;&gt;node_modules/fun&#45;case/src/index -->
<g id="edge3" class="edge"><title>src/index&#45;&gt;node_modules/fun&#45;case/src/index</title>
<path fill="none" stroke="#757575" d="M1077.81,-80.1345C1027.84,-69.1344 941.517,-50.1325 878.343,-36.2264"/>
<polygon fill="#757575" stroke="#757575" points="878.931,-32.772 868.412,-34.0403 877.426,-39.6083 878.931,-32.772"/>
</g>
<!-- node_modules/fun&#45;curry/src/index -->
<g id="node5" class="node"><title>node_modules/fun&#45;curry/src/index</title>
<ellipse fill="none" stroke="#cfffac" cx="1118.09" cy="-18" rx="150.273" ry="18"/>
<text text-anchor="middle" x="1118.09" y="-14.3" font-family="Arial" font-size="14.00" fill="#cfffac">node_modules/fun&#45;curry/src/index</text>
</g>
<!-- src/index&#45;&gt;node_modules/fun&#45;curry/src/index -->
<g id="edge4" class="edge"><title>src/index&#45;&gt;node_modules/fun&#45;curry/src/index</title>
<path fill="none" stroke="#757575" d="M1118.09,-71.6966C1118.09,-63.9827 1118.09,-54.7125 1118.09,-46.1124"/>
<polygon fill="#757575" stroke="#757575" points="1121.59,-46.1043 1118.09,-36.1043 1114.59,-46.1044 1121.59,-46.1043"/>
</g>
<!-- node_modules/fun&#45;flip/src/index -->
<g id="node6" class="node"><title>node_modules/fun&#45;flip/src/index</title>
<ellipse fill="none" stroke="#cfffac" cx="1428.09" cy="-18" rx="142.175" ry="18"/>
<text text-anchor="middle" x="1428.09" y="-14.3" font-family="Arial" font-size="14.00" fill="#cfffac">node_modules/fun&#45;flip/src/index</text>
</g>
<!-- src/index&#45;&gt;node_modules/fun&#45;flip/src/index -->
<g id="edge5" class="edge"><title>src/index&#45;&gt;node_modules/fun&#45;flip/src/index</title>
<path fill="none" stroke="#757575" d="M1158.3,-79.9205C1207.18,-68.8823 1290.72,-50.0187 1351.92,-36.1999"/>
<polygon fill="#757575" stroke="#757575" points="1352.94,-39.5578 1361.92,-33.9411 1351.39,-32.7298 1352.94,-39.5578"/>
</g>
<!-- node_modules/fun&#45;predicate/src/index -->
<g id="node7" class="node"><title>node_modules/fun&#45;predicate/src/index</title>
<ellipse fill="none" stroke="#cfffac" cx="1757.09" cy="-18" rx="168.97" ry="18"/>
<text text-anchor="middle" x="1757.09" y="-14.3" font-family="Arial" font-size="14.00" fill="#cfffac">node_modules/fun&#45;predicate/src/index</text>
</g>
<!-- src/index&#45;&gt;node_modules/fun&#45;predicate/src/index -->
<g id="edge6" class="edge"><title>src/index&#45;&gt;node_modules/fun&#45;predicate/src/index</title>
<path fill="none" stroke="#757575" d="M1163.53,-84.0219C1260.43,-73.407 1490.2,-48.2366 1633.76,-32.51"/>
<polygon fill="#757575" stroke="#757575" points="1634.38,-35.9625 1643.94,-31.3943 1633.62,-29.0042 1634.38,-35.9625"/>
</g>
<!-- node_modules/guarded/src/index -->
<g id="node8" class="node"><title>node_modules/guarded/src/index</title>
<ellipse fill="none" stroke="#cfffac" cx="2093.09" cy="-18" rx="148.674" ry="18"/>
<text text-anchor="middle" x="2093.09" y="-14.3" font-family="Arial" font-size="14.00" fill="#cfffac">node_modules/guarded/src/index</text>
</g>
<!-- src/index&#45;&gt;node_modules/guarded/src/index -->
<g id="edge7" class="edge"><title>src/index&#45;&gt;node_modules/guarded/src/index</title>
<path fill="none" stroke="#757575" d="M1165.57,-86.6255C1291.25,-80.187 1643.01,-61.1754 1935.09,-36 1949.16,-34.7873 1963.92,-33.3798 1978.53,-31.904"/>
<polygon fill="#757575" stroke="#757575" points="1979.02,-35.3723 1988.61,-30.873 1978.31,-28.4086 1979.02,-35.3723"/>
</g>
</g>
</svg>
